<svg width="477" height="326" viewBox="0 0 477 326" fill="none" xmlns="http://www.w3.org/2000/svg">
<g clip-path="url(#clip0)">
<path opacity="0.1" d="M476.482 136.788C473.58 148.537 458.68 154.425 450.332 163.19C434.601 179.709 440.727 203.832 450.708 223.151C454.049 229.62 457.84 236.469 456.425 243.405C454.7 251.89 445.534 258.092 435.908 261.381C418.368 267.37 397.363 265.943 381.239 257.658C367.308 250.501 357.327 238.877 343.158 232.024C319.442 220.593 289.258 224.929 263.504 232.788C245.288 238.36 225.369 245.609 207.265 239.791C194.528 235.693 185.721 225.718 180.923 215.167C178.609 210.063 176.926 204.537 172.504 200.493C169.873 198.085 166.44 196.378 162.928 194.942C130.823 181.796 90.2652 188.836 59.0994 174.254C38.0438 164.409 24.5593 145.836 18.5918 126.467C12.6242 107.097 13.3174 86.7889 14.8333 66.8394C15.9107 52.6493 17.8443 37.5327 28.8105 26.5897C40.4116 15.0164 60.3188 10.7302 78.3175 12.913C96.3163 15.0957 112.624 22.9545 126.977 32.1864C144.934 43.7304 161.546 58.1 183.566 62.7743C198.562 65.9588 214.335 64.2142 229.803 63.609C255.662 62.6032 281.528 64.8611 307.24 67.2985C319.768 68.4963 332.338 69.7525 344.757 71.5722C347.541 71.9784 350.325 72.4166 353.109 72.8868C354.504 73.1247 355.899 73.371 357.286 73.6256C358.371 73.8217 359.453 74.0429 360.534 74.2391C362.241 74.5702 363.942 74.918 365.638 75.2825C370.507 76.3259 375.33 77.507 380.103 78.8508C396.699 83.5294 410.004 92.0267 425.677 97.9615C435.891 101.83 447.029 102.899 456.7 107.824C468.602 113.871 479.535 124.434 476.482 136.788Z" fill="#FF4646"/>
<path d="M392.527 199.391C416.105 199.391 435.219 180.289 435.219 156.725C435.219 133.161 416.105 114.059 392.527 114.059C368.949 114.059 349.835 133.161 349.835 156.725C349.835 180.289 368.949 199.391 392.527 199.391Z" fill="#FF4646"/>
<path d="M347.125 187.735C370.703 187.735 389.817 168.632 389.817 145.068C389.817 121.504 370.703 102.402 347.125 102.402C323.547 102.402 304.433 121.504 304.433 145.068C304.433 168.632 323.547 187.735 347.125 187.735Z" fill="#FF4646"/>
<path d="M297.146 188.152C320.724 188.152 339.838 169.05 339.838 145.486C339.838 121.922 320.724 102.82 297.146 102.82C273.568 102.82 254.455 121.922 254.455 145.486C254.455 169.05 273.568 188.152 297.146 188.152Z" fill="#FF4646"/>
<path d="M280.902 199.391C304.48 199.391 323.593 180.289 323.593 156.725C323.593 133.161 304.48 114.059 280.902 114.059C257.324 114.059 238.21 133.161 238.21 156.725C238.21 180.289 257.324 199.391 280.902 199.391Z" fill="#FF4646"/>
<path d="M253.411 203.139C276.988 203.139 296.102 184.037 296.102 160.473C296.102 136.909 276.988 117.807 253.411 117.807C229.833 117.807 210.719 136.909 210.719 160.473C210.719 184.037 229.833 203.139 253.411 203.139Z" fill="#FF4646"/>
<path d="M242.164 169.421C265.742 169.421 284.856 150.319 284.856 126.755C284.856 103.191 265.742 84.0887 242.164 84.0887C218.586 84.0887 199.473 103.191 199.473 126.755C199.473 150.319 218.586 169.421 242.164 169.421Z" fill="#FF4646"/>
<path d="M254.659 130.29C278.237 130.29 297.351 111.188 297.351 87.6236C297.351 64.0598 278.237 44.9575 254.659 44.9575C231.081 44.9575 211.968 64.0598 211.968 87.6236C211.968 111.188 231.081 130.29 254.659 130.29Z" fill="#FF4646"/>
<path d="M278.4 130.29C301.978 130.29 321.092 111.188 321.092 87.6236C321.092 64.0598 301.978 44.9575 278.4 44.9575C254.822 44.9575 235.708 64.0598 235.708 87.6236C235.708 111.188 254.822 130.29 278.4 130.29Z" fill="#FF4646"/>
<path d="M292.148 112.807C315.725 112.807 334.839 93.7045 334.839 70.1406C334.839 46.5768 315.725 27.4745 292.148 27.4745C268.57 27.4745 249.456 46.5768 249.456 70.1406C249.456 93.7045 268.57 112.807 292.148 112.807Z" fill="#FF4646"/>
<path d="M327.134 131.955C350.712 131.955 369.826 112.853 369.826 89.2889C369.826 65.725 350.712 46.6227 327.134 46.6227C303.556 46.6227 284.443 65.725 284.443 89.2889C284.443 112.853 303.556 131.955 327.134 131.955Z" fill="#FF4646"/>
<path d="M408.772 169.421C432.35 169.421 451.463 150.319 451.463 126.755C451.463 103.191 432.35 84.0887 408.772 84.0887C385.194 84.0887 366.08 103.191 366.08 126.755C366.08 150.319 385.194 169.421 408.772 169.421Z" fill="#FF4646"/>
<path d="M384.196 148.19C407.774 148.19 426.887 129.088 426.887 105.524C426.887 81.9601 407.774 62.8578 384.196 62.8578C360.618 62.8578 341.504 81.9601 341.504 105.524C341.504 129.088 360.618 148.19 384.196 148.19Z" fill="#FF4646"/>
<path d="M368.369 126.959C391.947 126.959 411.06 107.857 411.06 84.2932C411.06 60.7293 391.947 41.627 368.369 41.627C344.791 41.627 325.677 60.7293 325.677 84.2932C325.677 107.857 344.791 126.959 368.369 126.959Z" fill="#FF4646"/>
<path d="M338.38 94.9065C361.958 94.9065 381.072 75.8042 381.072 52.2403C381.072 28.6764 361.958 9.57413 338.38 9.57413C314.802 9.57413 295.689 28.6764 295.689 52.2403C295.689 75.8042 314.802 94.9065 338.38 94.9065Z" fill="#FF4646"/>
<path d="M394.193 130.29C417.771 130.29 436.885 111.188 436.885 87.6236C436.885 64.0598 417.771 44.9575 394.193 44.9575C370.615 44.9575 351.502 64.0598 351.502 87.6236C351.502 111.188 370.615 130.29 394.193 130.29Z" fill="#FF4646"/>
<g opacity="0.1">
<path opacity="0.1" d="M392.527 199.391C416.105 199.391 435.219 180.289 435.219 156.725C435.219 133.161 416.105 114.059 392.527 114.059C368.949 114.059 349.835 133.161 349.835 156.725C349.835 180.289 368.949 199.391 392.527 199.391Z" fill="black"/>
<path opacity="0.1" d="M347.125 187.735C370.703 187.735 389.817 168.632 389.817 145.068C389.817 121.504 370.703 102.402 347.125 102.402C323.547 102.402 304.433 121.504 304.433 145.068C304.433 168.632 323.547 187.735 347.125 187.735Z" fill="black"/>
<path opacity="0.1" d="M297.146 188.152C320.724 188.152 339.838 169.05 339.838 145.486C339.838 121.922 320.724 102.82 297.146 102.82C273.568 102.82 254.455 121.922 254.455 145.486C254.455 169.05 273.568 188.152 297.146 188.152Z" fill="black"/>
<path opacity="0.1" d="M280.901 199.391C304.479 199.391 323.593 180.289 323.593 156.725C323.593 133.161 304.479 114.059 280.901 114.059C257.323 114.059 238.21 133.161 238.21 156.725C238.21 180.289 257.323 199.391 280.901 199.391Z" fill="black"/>
<path opacity="0.1" d="M253.41 203.139C276.988 203.139 296.102 184.037 296.102 160.473C296.102 136.909 276.988 117.807 253.41 117.807C229.832 117.807 210.719 136.909 210.719 160.473C210.719 184.037 229.832 203.139 253.41 203.139Z" fill="black"/>
<path opacity="0.1" d="M242.164 169.421C265.742 169.421 284.856 150.319 284.856 126.755C284.856 103.191 265.742 84.0887 242.164 84.0887C218.586 84.0887 199.473 103.191 199.473 126.755C199.473 150.319 218.586 169.421 242.164 169.421Z" fill="black"/>
<path opacity="0.1" d="M254.659 130.29C278.237 130.29 297.351 111.188 297.351 87.6236C297.351 64.0598 278.237 44.9575 254.659 44.9575C231.081 44.9575 211.967 64.0598 211.967 87.6236C211.967 111.188 231.081 130.29 254.659 130.29Z" fill="black"/>
<path opacity="0.1" d="M278.4 130.29C301.978 130.29 321.092 111.188 321.092 87.6236C321.092 64.0598 301.978 44.9575 278.4 44.9575C254.822 44.9575 235.708 64.0598 235.708 87.6236C235.708 111.188 254.822 130.29 278.4 130.29Z" fill="black"/>
<path opacity="0.1" d="M292.148 112.807C315.725 112.807 334.839 93.7045 334.839 70.1406C334.839 46.5768 315.725 27.4745 292.148 27.4745C268.57 27.4745 249.456 46.5768 249.456 70.1406C249.456 93.7045 268.57 112.807 292.148 112.807Z" fill="black"/>
<path opacity="0.1" d="M327.134 131.955C350.712 131.955 369.826 112.853 369.826 89.2889C369.826 65.725 350.712 46.6227 327.134 46.6227C303.556 46.6227 284.443 65.725 284.443 89.2889C284.443 112.853 303.556 131.955 327.134 131.955Z" fill="black"/>
<path opacity="0.1" d="M408.772 169.421C432.35 169.421 451.463 150.319 451.463 126.755C451.463 103.191 432.35 84.0887 408.772 84.0887C385.194 84.0887 366.08 103.191 366.08 126.755C366.08 150.319 385.194 169.421 408.772 169.421Z" fill="black"/>
<path opacity="0.1" d="M384.196 148.19C407.774 148.19 426.887 129.088 426.887 105.524C426.887 81.9601 407.774 62.8578 384.196 62.8578C360.618 62.8578 341.504 81.9601 341.504 105.524C341.504 129.088 360.618 148.19 384.196 148.19Z" fill="black"/>
<path opacity="0.1" d="M368.369 126.959C391.947 126.959 411.06 107.857 411.06 84.2932C411.06 60.7293 391.947 41.627 368.369 41.627C344.791 41.627 325.677 60.7293 325.677 84.2932C325.677 107.857 344.791 126.959 368.369 126.959Z" fill="black"/>
<path opacity="0.1" d="M338.38 94.9065C361.958 94.9065 381.072 75.8042 381.072 52.2403C381.072 28.6764 361.958 9.57413 338.38 9.57413C314.802 9.57413 295.689 28.6764 295.689 52.2403C295.689 75.8042 314.802 94.9065 338.38 94.9065Z" fill="black"/>
<path opacity="0.1" d="M394.193 130.29C417.771 130.29 436.885 111.188 436.885 87.6236C436.885 64.0598 417.771 44.9575 394.193 44.9575C370.615 44.9575 351.502 64.0598 351.502 87.6236C351.502 111.188 370.615 130.29 394.193 130.29Z" fill="black"/>
</g>
<path d="M371.442 231.494C371.442 231.494 397.542 209.571 384.63 178.352L371.718 173.519L357.707 216.628L371.442 231.494Z" fill="#67647E"/>
<path opacity="0.1" d="M372.833 172.034L375.923 173.19L362.167 215.514L374.169 228.502C373.175 229.491 372.557 230.008 372.557 230.008L358.818 215.142L372.833 172.034Z" fill="black"/>
<path opacity="0.1" d="M242.002 325.996C370.351 325.996 474.398 308.588 474.398 287.115C474.398 265.642 370.351 248.234 242.002 248.234C113.652 248.234 9.60486 265.642 9.60486 287.115C9.60486 308.588 113.652 325.996 242.002 325.996Z" fill="#FF4646"/>
<path d="M420.878 226.895C420.878 226.895 412.388 235.38 417.182 247.971C421.976 260.563 408.968 281.497 408.968 281.497L409.386 281.431C426.821 278.355 435.486 258.426 425.789 243.618C422.164 238.122 419.203 231.661 420.878 226.895Z" fill="#FF4646"/>
<path d="M420.878 226.895C420.878 226.895 416.084 237.295 420.878 245.78C425.672 254.265 421.713 278.075 408.964 281.497" stroke="#535461" stroke-miterlimit="10"/>
<path d="M436 261.214C436 261.214 426.311 259.674 425.43 268.351C424.549 277.028 406.797 278.23 406.797 278.23L407.131 278.451C421.784 288.05 435.791 284.573 433.678 271.811C432.897 267.065 432.959 262.299 436 261.214Z" fill="#FF4646"/>
<path opacity="0.2" d="M436 261.214C436 261.214 426.311 259.674 425.43 268.351C424.549 277.028 406.797 278.23 406.797 278.23L407.131 278.451C421.784 288.05 435.791 284.573 433.678 271.811C432.897 267.065 432.959 262.299 436 261.214Z" fill="#F5F5F5"/>
<path d="M436 261.214C436 261.214 428.483 262.883 429.097 269.699C429.711 276.514 417.93 284.724 406.801 278.23" stroke="#535461" stroke-miterlimit="10"/>
<path d="M253.569 185.831L256.96 199.395C256.96 199.395 280.918 202.517 296.892 200.556C299.715 200.155 302.426 199.178 304.855 197.684C306.204 196.887 308.334 196.541 311.245 198.719C316.231 202.476 340.702 232.525 336.739 263.701C336.432 266.051 335.358 268.233 333.684 269.911C332.011 271.589 329.831 272.669 327.481 272.983V272.983C322.601 273.648 317.936 275.412 313.838 278.142L301.727 286.201L425.902 283.488L413.011 267.892C413.011 267.892 404.191 260.434 397.405 259.753C395.425 259.557 393.792 257.742 392.473 255.275C384.743 240.814 375.497 227.216 365.475 214.232C358.175 204.775 352.049 194.809 352.621 188.548C353.978 173.628 352.621 149.217 352.621 149.217L326.838 145.828C326.838 145.828 330.229 178.382 299.017 186.516C267.805 194.65 253.569 185.831 253.569 185.831Z" fill="#67647E"/>
<g opacity="0.1">
<path opacity="0.1" d="M274.604 191.937C274.604 191.937 288.853 200.752 320.069 192.613C351.284 184.475 347.889 151.925 347.889 151.925L352.796 152.564C352.704 150.477 352.633 149.225 352.633 149.225L326.85 145.836C326.85 145.836 330.241 178.39 299.03 186.524C267.818 194.658 253.565 185.848 253.565 185.848L256.956 199.412C256.956 199.412 266.11 200.606 276.876 201.052L274.604 191.937Z" fill="black"/>
<path opacity="0.1" d="M334.873 284.244C338.971 281.514 343.636 279.75 348.516 279.085V279.085C350.86 278.774 353.037 277.7 354.709 276.029C356.382 274.358 357.457 272.184 357.77 269.841C361.754 238.664 337.27 208.561 332.296 204.821C326.867 200.752 324.153 205.497 324.153 205.497C322.232 206.001 320.278 206.373 318.306 206.611C327.101 218.297 339.683 240.714 336.739 263.735C336.427 266.078 335.351 268.252 333.679 269.923C332.006 271.594 329.83 272.668 327.485 272.979V272.979C322.605 273.644 317.94 275.408 313.842 278.138L301.732 286.197L332.952 285.517L334.873 284.244Z" fill="black"/>
</g>
<path d="M274.349 251.627C274.349 251.627 271.756 242.83 274.834 236.352C276.142 233.644 276.536 230.585 275.957 227.634C275.666 226.233 275.246 224.863 274.704 223.539" stroke="#535461" stroke-width="2" stroke-miterlimit="10"/>
<path d="M276.642 219.445C276.642 220.522 274.687 223.652 274.687 223.652C274.687 223.652 272.745 220.522 272.745 219.445C272.745 218.927 272.951 218.43 273.318 218.064C273.684 217.698 274.182 217.492 274.7 217.492C275.218 217.492 275.715 217.698 276.082 218.064C276.448 218.43 276.654 218.927 276.654 219.445H276.642Z" fill="#FF4646"/>
<path d="M279.874 225.417C279.289 226.323 275.949 227.888 275.949 227.888C275.949 227.888 276.011 224.203 276.596 223.297C276.732 223.074 276.911 222.88 277.123 222.727C277.335 222.574 277.576 222.465 277.831 222.406C278.086 222.348 278.35 222.341 278.607 222.387C278.865 222.432 279.111 222.529 279.33 222.671C279.55 222.814 279.738 222.998 279.885 223.215C280.032 223.431 280.134 223.675 280.184 223.932C280.235 224.188 280.234 224.452 280.18 224.708C280.127 224.964 280.023 225.207 279.874 225.422V225.417Z" fill="#FF4646"/>
<path d="M279.732 235.618C278.767 236.102 275.097 235.768 275.097 235.768C275.097 235.768 277.009 232.617 277.974 232.133C278.203 232.017 278.453 231.948 278.709 231.929C278.965 231.91 279.222 231.942 279.466 232.022C279.709 232.103 279.935 232.231 280.129 232.398C280.324 232.566 280.483 232.77 280.599 232.999C280.714 233.228 280.783 233.477 280.802 233.733C280.821 233.989 280.789 234.246 280.709 234.49C280.628 234.733 280.501 234.959 280.333 235.153C280.166 235.347 279.961 235.506 279.732 235.622V235.618Z" fill="#FF4646"/>
<path d="M277.886 243.326C277.018 243.969 273.343 244.257 273.343 244.257C273.343 244.257 274.696 240.826 275.564 240.188C275.982 239.905 276.493 239.794 276.99 239.879C277.488 239.964 277.933 240.238 278.233 240.643C278.533 241.049 278.664 241.554 278.6 242.054C278.535 242.554 278.279 243.01 277.886 243.326Z" fill="#FF4646"/>
<path d="M271.844 228.105C272.616 228.857 276.224 229.637 276.224 229.637C276.224 229.637 275.343 226.056 274.554 225.305C274.179 224.962 273.685 224.778 273.177 224.792C272.669 224.807 272.186 225.019 271.832 225.384C271.477 225.748 271.279 226.236 271.279 226.744C271.279 227.252 271.477 227.741 271.831 228.105H271.844Z" fill="#FF4646"/>
<path d="M269.797 237.128C270.762 237.613 274.433 237.279 274.433 237.279C274.433 237.279 272.52 234.128 271.555 233.644C271.092 233.411 270.556 233.371 270.064 233.533C269.571 233.696 269.164 234.047 268.931 234.51C268.698 234.972 268.658 235.509 268.82 236C268.983 236.492 269.334 236.9 269.797 237.133V237.128Z" fill="#FF4646"/>
<path d="M269.012 246.181C269.881 246.824 273.556 247.112 273.556 247.112C273.556 247.112 272.203 243.681 271.334 243.042C270.917 242.759 270.406 242.649 269.908 242.734C269.411 242.819 268.966 243.092 268.666 243.498C268.366 243.903 268.234 244.409 268.299 244.909C268.364 245.409 268.619 245.865 269.012 246.181V246.181Z" fill="#FF4646"/>
<path d="M268.708 250.768C268.708 250.768 273.447 249.82 274.708 248.556C275.97 247.291 281.657 245.083 282.292 246.661C282.927 248.238 290.824 253.606 285.449 254.553C280.075 255.5 272.813 255.805 271.251 255.183C269.689 254.561 268.708 250.768 268.708 250.768Z" fill="#A8A8A8"/>
<path opacity="0.2" d="M285.453 253.981C280.083 254.929 272.817 255.233 271.255 254.611C270.052 254.132 269.217 251.819 268.887 250.747L268.728 250.78C268.728 250.78 269.676 254.57 271.255 255.2C272.833 255.83 280.1 255.517 285.453 254.57C287.003 254.294 287.445 253.656 287.278 252.842C287.145 253.359 286.606 253.768 285.453 253.981Z" fill="black"/>
<path d="M347.288 280.467C347.288 280.467 361.666 277.591 365.504 273.76C369.342 269.928 386.593 263.221 388.51 268.013C390.426 272.804 414.401 289.089 398.114 291.965C381.828 294.84 359.77 295.796 354.976 293.88C350.182 291.965 347.288 280.467 347.288 280.467Z" fill="#A8A8A8"/>
<path opacity="0.2" d="M398.098 290.183C381.811 293.058 359.753 294.014 354.959 292.098C351.309 290.638 348.77 283.626 347.768 280.366L347.288 280.467C347.288 280.467 350.165 291.965 354.955 293.88C359.745 295.796 381.799 294.84 398.094 291.965C402.8 291.13 404.145 289.185 403.635 286.723C403.238 288.33 401.597 289.569 398.098 290.183Z" fill="black"/>
<path d="M444.606 198.807C444.553 200.522 444.016 202.187 443.057 203.611C442.091 202.192 441.545 200.53 441.483 198.815C441.483 196.165 442.168 194.016 443.032 194.012C443.896 194.007 444.598 196.157 444.606 198.807Z" fill="#FF4646"/>
<path d="M326.721 196.478C326.663 198.193 326.122 199.857 325.159 201.278C324.196 199.857 323.655 198.193 323.597 196.478C323.597 193.828 324.295 191.679 325.159 191.679C326.023 191.679 326.721 193.828 326.721 196.478Z" fill="#FF4646"/>
<path d="M455.201 243.773C456.164 245.194 456.705 246.857 456.763 248.572C455.148 247.989 453.731 246.962 452.675 245.609C451.113 243.464 450.415 241.315 451.113 240.81C451.81 240.305 453.643 241.632 455.201 243.773Z" fill="#FF4646"/>
<path d="M405.314 218.644C405.256 220.359 404.715 222.023 403.752 223.443C402.79 222.023 402.248 220.359 402.19 218.644C402.19 215.994 402.888 213.844 403.752 213.844C404.617 213.844 405.314 216.002 405.314 218.644Z" fill="#FF4646"/>
<path d="M376.132 202.701C376.074 204.416 375.533 206.08 374.57 207.5C373.607 206.08 373.066 204.416 373.008 202.701C373.008 200.051 373.706 197.901 374.57 197.901C375.435 197.901 376.132 200.051 376.132 202.701Z" fill="#FF4646"/>
<path d="M358.029 212.421C358.832 213.938 359.189 215.651 359.06 217.363C357.512 216.61 356.209 215.435 355.302 213.974C353.982 211.674 353.523 209.462 354.27 209.032C355.018 208.602 356.713 210.121 358.029 212.421Z" fill="#FF4646"/>
<path d="M344.503 256.51C343.211 257.642 341.626 258.386 339.93 258.656C340.309 256.983 341.153 255.451 342.364 254.236C344.298 252.425 346.348 251.465 346.937 252.091C347.526 252.717 346.436 254.699 344.503 256.51Z" fill="#FF4646"/>
<path opacity="0.1" d="M344.503 256.51C343.211 257.642 341.626 258.386 339.93 258.656C340.309 256.983 341.153 255.451 342.364 254.236C344.298 252.425 346.348 251.465 346.937 252.091C347.526 252.717 346.436 254.699 344.503 256.51Z" fill="black"/>
<path d="M372.904 253.789C371.612 254.921 370.027 255.664 368.331 255.934C368.71 254.261 369.554 252.729 370.766 251.515C372.699 249.703 374.75 248.743 375.338 249.369C375.927 249.996 374.837 251.974 372.904 253.789Z" fill="#FF4646"/>
<path opacity="0.1" d="M372.904 253.789C371.612 254.921 370.027 255.664 368.331 255.934C368.71 254.261 369.554 252.729 370.766 251.515C372.699 249.703 374.75 248.743 375.338 249.369C375.927 249.996 374.837 251.974 372.904 253.789Z" fill="black"/>
<path d="M378.349 282.562C377.058 283.693 375.473 284.437 373.777 284.707C374.154 283.029 375 281.492 376.215 280.275C378.149 278.463 380.199 277.503 380.788 278.129C381.377 278.755 380.287 280.746 378.349 282.562Z" fill="#FF4646"/>
<path opacity="0.1" d="M378.349 282.562C377.058 283.693 375.473 284.437 373.777 284.707C374.154 283.029 375 281.492 376.215 280.275C378.149 278.463 380.199 277.503 380.788 278.129C381.377 278.755 380.287 280.746 378.349 282.562Z" fill="black"/>
<path d="M37.7806 236.565C44.1825 246.01 42.1404 279.824 42.1404 279.824C42.1404 279.824 9.96397 269.177 3.5621 259.737C0.488076 255.201 -0.657244 249.631 0.378093 244.251C1.41343 238.872 4.54462 234.124 9.08282 231.052C13.621 227.98 19.1945 226.835 24.5772 227.87C29.9598 228.904 34.7107 232.034 37.7848 236.569L37.7806 236.565Z" fill="#FF4646"/>
<path opacity="0.1" d="M37.7806 236.565C44.1825 246.01 42.1404 279.824 42.1404 279.824C42.1404 279.824 9.96397 269.177 3.5621 259.737C0.488076 255.201 -0.657244 249.631 0.378093 244.251C1.41343 238.872 4.54462 234.124 9.08282 231.052C13.621 227.98 19.1945 226.835 24.5772 227.87C29.9598 228.904 34.7107 232.034 37.7848 236.569L37.7806 236.565Z" fill="black"/>
<path d="M9.20398 231.073C9.20398 231.073 33.3164 249.678 42.2657 279.857" stroke="#535461" stroke-miterlimit="10"/>
<path d="M48.3377 254.219C48.3377 254.219 31.216 251.298 42.9089 279.64C42.9089 279.64 54.8064 275.108 55.7335 263.831C55.9175 261.637 55.2901 259.451 53.9703 257.689C52.6504 255.926 50.7296 254.708 48.5716 254.265L48.3377 254.219Z" fill="#FF4646"/>
<path d="M48.5882 254.19C48.5882 254.19 51.8497 269.866 42.9255 279.649" stroke="#535461" stroke-miterlimit="10"/>
<path d="M421.208 280.521C421.208 280.521 428.353 279.102 430.258 277.211C432.162 275.321 440.739 272.011 441.692 274.373C442.644 276.735 454.554 284.774 446.456 286.189C438.359 287.603 427.401 288.079 425.021 287.136C422.641 286.193 421.208 280.521 421.208 280.521Z" fill="#A8A8A8"/>
<path opacity="0.2" d="M446.469 285.316C438.372 286.735 427.414 287.207 425.033 286.264C423.221 285.542 421.96 282.09 421.459 280.475L421.221 280.525C421.221 280.525 422.649 286.197 425.033 287.144C427.418 288.092 438.372 287.616 446.469 286.197C448.807 285.779 449.476 284.828 449.225 283.609C449.012 284.398 448.198 285.012 446.469 285.316Z" fill="black"/>
<path d="M392.527 189.817C416.105 189.817 435.219 170.715 435.219 147.151C435.219 123.587 416.105 104.485 392.527 104.485C368.949 104.485 349.835 123.587 349.835 147.151C349.835 170.715 368.949 189.817 392.527 189.817Z" fill="#FF4646"/>
<path d="M347.125 178.16C370.703 178.16 389.817 159.058 389.817 135.494C389.817 111.93 370.703 92.8281 347.125 92.8281C323.547 92.8281 304.433 111.93 304.433 135.494C304.433 159.058 323.547 178.16 347.125 178.16Z" fill="#FF4646"/>
<path d="M297.146 178.578C320.724 178.578 339.838 159.475 339.838 135.912C339.838 112.348 320.724 93.2454 297.146 93.2454C273.568 93.2454 254.455 112.348 254.455 135.912C254.455 159.475 273.568 178.578 297.146 178.578Z" fill="#FF4646"/>
<path d="M280.902 189.817C304.48 189.817 323.593 170.715 323.593 147.151C323.593 123.587 304.48 104.485 280.902 104.485C257.324 104.485 238.21 123.587 238.21 147.151C238.21 170.715 257.324 189.817 280.902 189.817Z" fill="#FF4646"/>
<path d="M253.411 193.565C276.988 193.565 296.102 174.463 296.102 150.899C296.102 127.335 276.988 108.233 253.411 108.233C229.833 108.233 210.719 127.335 210.719 150.899C210.719 174.463 229.833 193.565 253.411 193.565Z" fill="#FF4646"/>
<path d="M242.164 159.847C265.742 159.847 284.856 140.745 284.856 117.181C284.856 93.6168 265.742 74.5145 242.164 74.5145C218.586 74.5145 199.473 93.6168 199.473 117.181C199.473 140.745 218.586 159.847 242.164 159.847Z" fill="#FF4646"/>
<path d="M254.659 120.716C278.237 120.716 297.351 101.613 297.351 78.0495C297.351 54.4856 278.237 35.3833 254.659 35.3833C231.081 35.3833 211.968 54.4856 211.968 78.0495C211.968 101.613 231.081 120.716 254.659 120.716Z" fill="#FF4646"/>
<path d="M278.4 120.716C301.978 120.716 321.092 101.613 321.092 78.0495C321.092 54.4856 301.978 35.3833 278.4 35.3833C254.822 35.3833 235.708 54.4856 235.708 78.0495C235.708 101.613 254.822 120.716 278.4 120.716Z" fill="#FF4646"/>
<path d="M292.148 103.233C315.725 103.233 334.839 84.1304 334.839 60.5665C334.839 37.0026 315.725 17.9003 292.148 17.9003C268.57 17.9003 249.456 37.0026 249.456 60.5665C249.456 84.1304 268.57 103.233 292.148 103.233Z" fill="#FF4646"/>
<path d="M327.134 122.381C350.712 122.381 369.826 103.279 369.826 79.7148C369.826 56.1509 350.712 37.0486 327.134 37.0486C303.556 37.0486 284.443 56.1509 284.443 79.7148C284.443 103.279 303.556 122.381 327.134 122.381Z" fill="#FF4646"/>
<path d="M408.772 159.847C432.35 159.847 451.463 140.745 451.463 117.181C451.463 93.6168 432.35 74.5145 408.772 74.5145C385.194 74.5145 366.08 93.6168 366.08 117.181C366.08 140.745 385.194 159.847 408.772 159.847Z" fill="#FF4646"/>
<path d="M384.196 138.616C407.774 138.616 426.887 119.514 426.887 95.9499C426.887 72.386 407.774 53.2837 384.196 53.2837C360.618 53.2837 341.504 72.386 341.504 95.9499C341.504 119.514 360.618 138.616 384.196 138.616Z" fill="#FF4646"/>
<path d="M368.369 117.385C391.947 117.385 411.06 98.2829 411.06 74.719C411.06 51.1552 391.947 32.0529 368.369 32.0529C344.791 32.0529 325.677 51.1552 325.677 74.719C325.677 98.2829 344.791 117.385 368.369 117.385Z" fill="#FF4646"/>
<path d="M338.38 85.3324C361.958 85.3324 381.072 66.2301 381.072 42.6662C381.072 19.1023 361.958 0 338.38 0C314.802 0 295.689 19.1023 295.689 42.6662C295.689 66.2301 314.802 85.3324 338.38 85.3324Z" fill="#FF4646"/>
<path d="M394.193 120.716C417.771 120.716 436.885 101.613 436.885 78.0495C436.885 54.4856 417.771 35.3833 394.193 35.3833C370.615 35.3833 351.502 54.4856 351.502 78.0495C351.502 101.613 370.615 120.716 394.193 120.716Z" fill="#FF4646"/>
<path opacity="0.1" d="M435.031 84.7314C435.031 84.7314 395.271 65.8878 371.213 99.2845Z" fill="black"/>
<path opacity="0.1" d="M330.596 46.5559C330.596 46.5559 286.614 45.2287 277.978 85.4617Z" fill="black"/>
<path opacity="0.1" d="M275.924 133.85C275.924 133.85 236.164 115.002 212.105 148.39Z" fill="black"/>
<path d="M101.912 240.209C101.912 240.209 104.205 243.205 100.851 247.721C97.498 252.237 94.7335 256.068 95.8401 258.889C95.8401 258.889 100.897 250.484 105.027 250.367C109.158 250.25 106.439 245.263 101.912 240.209Z" fill="#FF4646"/>
<path opacity="0.1" d="M101.912 240.209C102.112 240.498 102.269 240.814 102.38 241.148C106.397 245.864 108.539 250.267 104.677 250.379C101.081 250.484 96.763 256.911 95.7316 258.535C95.765 258.661 95.8054 258.785 95.8527 258.906C95.8527 258.906 100.91 250.501 105.04 250.384C109.17 250.267 106.439 245.263 101.912 240.209Z" fill="black"/>
<path d="M106.176 244.031C106.176 245.087 106.059 245.943 105.913 245.943C105.767 245.943 105.65 245.108 105.65 244.031C105.65 242.955 105.796 243.472 105.942 243.472C106.088 243.472 106.176 242.976 106.176 244.031Z" fill="#FFD037"/>
<path d="M107.637 245.288C106.71 245.793 105.9 246.097 105.833 245.968C105.767 245.839 106.46 245.325 107.387 244.82C108.314 244.315 107.947 244.683 108.018 244.82C108.088 244.958 108.565 244.799 107.637 245.288Z" fill="#FFD037"/>
<path d="M89.7932 240.209C89.7932 240.209 87.5005 243.205 90.8539 247.721C94.2073 252.237 96.9718 256.068 95.8652 258.889C95.8652 258.889 90.808 250.484 86.6779 250.367C82.5478 250.25 85.2622 245.263 89.7932 240.209Z" fill="#FF4646"/>
<path opacity="0.1" d="M89.7932 240.209C89.5937 240.498 89.4362 240.814 89.3255 241.148C85.3082 245.864 83.1659 250.267 87.0287 250.379C90.6243 250.484 94.9423 256.911 95.9738 258.535C95.9404 258.661 95.9 258.785 95.8527 258.906C95.8527 258.906 90.7955 250.501 86.6654 250.384C82.5353 250.267 85.2622 245.263 89.7932 240.209Z" fill="black"/>
<path d="M85.5294 244.031C85.5294 245.087 85.6463 245.943 85.7925 245.943C85.9387 245.943 86.0556 245.108 86.0556 244.031C86.0556 242.955 85.9094 243.472 85.7633 243.472C85.6171 243.472 85.5294 242.976 85.5294 244.031Z" fill="#FFD037"/>
<path d="M84.0636 245.288C84.9907 245.793 85.8009 246.097 85.8677 245.968C85.9345 245.839 85.2413 245.325 84.3142 244.82C83.3871 244.315 83.7546 244.683 83.6836 244.82C83.6126 244.958 83.1532 244.799 84.0636 245.288Z" fill="#FFD037"/>
<path d="M86.2603 258.51C86.2603 258.51 92.6747 258.313 94.6123 256.936C96.55 255.559 104.48 253.919 104.956 256.122C105.432 258.326 114.595 267.095 107.353 267.153C100.112 267.211 90.5282 266.026 88.5988 264.849C86.6695 263.672 86.2603 258.51 86.2603 258.51Z" fill="#A8A8A8"/>
<path opacity="0.2" d="M107.479 266.389C100.237 266.448 90.6534 265.262 88.7241 264.085C87.2541 263.192 86.6695 259.983 86.4732 258.501H86.2603C86.2603 258.501 86.6779 263.672 88.5947 264.845C90.5115 266.018 100.108 267.207 107.349 267.149C109.437 267.149 110.16 266.389 110.122 265.287C109.834 265.959 109.045 266.377 107.479 266.389Z" fill="black"/>
<path d="M49.9287 299.782C50.6941 299.158 51.2519 298.317 51.5282 297.369C51.737 296.41 51.3277 295.262 50.409 294.911C49.3817 294.519 48.2834 295.228 47.4523 295.95C46.6213 296.672 45.665 297.49 44.5751 297.336C45.1353 296.829 45.5543 296.185 45.7915 295.467C46.0286 294.75 46.0757 293.983 45.9281 293.242C45.881 292.935 45.7511 292.646 45.5523 292.407C44.9801 291.798 43.9486 292.061 43.2638 292.541C41.0922 294.068 40.4867 297.015 40.4742 299.669C40.257 298.713 40.4408 297.716 40.4324 296.748C40.4241 295.779 40.1568 294.661 39.3299 294.152C38.8172 293.876 38.2414 293.74 37.6595 293.755C36.6823 293.718 35.5966 293.818 34.9284 294.531C34.0932 295.416 34.3145 296.906 35.037 297.87C35.7594 298.834 36.8536 299.456 37.8642 300.132C38.6741 300.614 39.365 301.271 39.8854 302.056C39.9466 302.165 39.9969 302.28 40.0357 302.399H46.1536C47.5243 301.7 48.7942 300.82 49.9287 299.782V299.782Z" fill="#FF4646"/>
<path d="M429.948 305.625C430.714 305.001 431.272 304.16 431.548 303.212C431.757 302.252 431.347 301.105 430.429 300.754C429.401 300.362 428.303 301.071 427.472 301.793C426.641 302.515 425.685 303.333 424.595 303.179C425.155 302.672 425.574 302.028 425.811 301.31C426.048 300.593 426.095 299.826 425.948 299.085C425.901 298.778 425.771 298.489 425.572 298.25C425 297.641 423.968 297.904 423.284 298.384C421.112 299.911 420.506 302.858 420.494 305.512C420.277 304.556 420.461 303.559 420.452 302.591C420.444 301.622 420.177 300.504 419.35 299.995C418.837 299.719 418.261 299.583 417.679 299.598C416.702 299.561 415.616 299.661 414.948 300.374C414.113 301.259 414.334 302.749 415.057 303.713C415.779 304.677 416.873 305.299 417.884 305.975C418.694 306.457 419.385 307.114 419.905 307.899C419.966 308.008 420.017 308.123 420.055 308.242H426.173C427.544 307.543 428.814 306.663 429.948 305.625V305.625Z" fill="#FF4646"/>
<path d="M287.6 303.363C287.6 303.363 287.182 309.898 288.018 310.984C288.018 310.984 268.841 314.468 266.444 313.379C264.047 312.29 265.137 310.55 266.444 309.894C267.751 309.239 274.291 306.843 275.159 302.273C275.159 302.273 272.328 300.967 281.478 302.691C290.628 304.414 287.6 303.363 287.6 303.363Z" fill="#DC9BA3"/>
<path opacity="0.05" d="M287.6 303.363C287.6 303.363 287.182 309.898 288.018 310.984C288.018 310.984 268.841 314.468 266.444 313.379C264.047 312.29 265.137 310.55 266.444 309.894C267.751 309.239 274.291 306.843 275.159 302.273C275.159 302.273 272.328 300.967 281.478 302.691C290.628 304.414 287.6 303.363 287.6 303.363Z" fill="black"/>
<path d="M362.347 239.983C362.347 239.983 359.95 243.902 361.474 251.527C362.998 259.152 357.553 259.148 357.553 259.148H346.662L342.957 249.549L348.186 249.966C348.186 249.966 351.673 249.094 350.149 241.035L362.347 239.983Z" fill="#FFD2D9"/>
<path d="M329.661 230.839C331.331 236.144 333.419 242.604 334.534 246.047L335.328 248.481L342.519 241.077C342.519 241.077 342.201 240.342 341.73 239.315C340.677 237.037 338.844 233.318 337.942 233.018C337.942 233.018 347.964 232.362 351.017 234.758C354.07 237.154 353.197 228.222 353.197 228.222C353.197 228.222 347.313 227.805 345.133 226.482C342.953 225.159 331.185 223.869 331.185 223.869C331.185 223.869 327.264 223.214 329.661 230.839Z" fill="#FFD2D9"/>
<path d="M264.281 294.882L265.805 305.988L269.726 305.57C269.726 305.57 269.964 305.345 270.365 304.986C271.422 304.055 273.623 302.232 275.727 301.23C276.44 300.866 277.212 300.636 278.007 300.55L273.648 294.014C272.587 294.411 271.5 294.733 270.394 294.978C269.246 295.248 268.071 295.388 266.891 295.395C265.994 295.409 265.105 295.234 264.281 294.882V294.882Z" fill="#FFD2D9"/>
<path d="M275.176 302.712C277.139 304.452 286.071 300.75 287.6 306.414L289.003 301.042L293.325 284.515L293.918 282.24L297.518 282.086L338.831 280.325L341.17 280.225L342.423 280.17L340.786 279.361L329.891 273.964C329.891 273.964 325.965 273.689 320.553 272.946C312.347 271.823 300.721 269.607 294.156 265.688C283.261 259.152 279.122 281.151 279.122 281.151C279.122 281.151 277.452 286.731 276.199 292.232C275.624 294.605 275.185 297.008 274.884 299.431C274.696 301.113 274.754 302.332 275.176 302.712Z" fill="#E9E9EF"/>
<path opacity="0.05" d="M275.176 302.712C277.139 304.452 286.071 300.75 287.6 306.414L289.003 301.042L293.325 284.515L293.918 282.24L297.631 282.011L337.545 279.557L340.009 279.402L340.769 279.356L341.751 279.294L329.874 273.956C329.874 273.956 325.948 273.68 320.536 272.938C312.33 271.815 300.704 269.599 294.139 265.68C283.244 259.144 279.106 281.143 279.106 281.143C279.106 281.143 277.435 286.723 276.183 292.224C275.607 294.596 275.168 297 274.867 299.423C274.696 301.113 274.754 302.332 275.176 302.712Z" fill="black"/>
<path opacity="0.1" d="M270.399 294.961L274.211 299.431L275.732 301.213C276.444 300.85 277.217 300.619 278.012 300.533L273.652 293.997C272.591 294.395 271.504 294.717 270.399 294.961V294.961Z" fill="black"/>
<path d="M270.603 294.435L274.867 299.444L276.922 301.852V302.507C279.427 303.087 287.274 301.434 289.003 301.055L289.341 300.98C294.352 301.197 312.877 290.308 312.877 290.308C312.877 290.308 333.144 293.793 342.945 292.92C348.42 292.432 349.956 290.454 350.245 288.797C350.371 287.978 350.258 287.141 349.919 286.385L341.149 280.229L339.988 279.394L338.134 278.088C338.134 278.088 334.91 277.357 330.818 276.456C324.42 275.045 315.897 273.213 314.172 273.084C311.341 272.867 304.149 275.262 300.007 280.053C299.296 280.801 298.493 281.456 297.618 282.002L297.505 282.078C296.34 282.85 294.908 283.668 293.329 284.507C288.055 287.282 281.022 290.266 276.187 292.223C272.879 293.572 270.603 294.435 270.603 294.435Z" fill="#E9E9EF"/>
<path opacity="0.1" d="M264.281 294.882L265.805 305.988L269.726 305.57C269.726 305.57 269.964 305.345 270.365 304.986C269.497 304.986 268.064 304.757 267.764 302.958C267.764 302.958 269.275 297.678 266.891 295.404C265.994 295.415 265.105 295.237 264.281 294.882Z" fill="black"/>
<path d="M267.317 302.929C267.317 302.929 269.497 295.308 264.485 294.435L256.204 297.703L246.599 298.359C246.599 298.359 244.094 302.444 248.107 307.027C249.211 308.269 250.554 309.276 252.057 309.986C253.56 310.696 255.191 311.095 256.852 311.159L267.317 311.639L270.603 304.899C270.603 304.899 267.768 305.541 267.317 302.929Z" fill="#DC9BA3"/>
<path opacity="0.1" d="M320.54 272.946C321.639 273.267 326.182 274.615 330.834 276.464C333.134 277.35 335.374 278.383 337.541 279.557C337.992 279.811 338.422 280.066 338.827 280.321C339.888 280.944 340.838 281.739 341.638 282.674C344.327 286.151 348.278 288.025 350.245 288.789C350.371 287.97 350.258 287.132 349.919 286.376L341.149 280.22L342.402 280.166L340.765 279.356L341.746 279.294L329.87 273.956C329.87 273.956 325.953 273.689 320.54 272.946Z" fill="black"/>
<path opacity="0.1" d="M334.551 246.052L335.344 248.485L342.536 241.081C342.536 241.081 342.218 240.346 341.746 239.32C340.815 241.235 336.476 244.599 334.551 246.052Z" fill="black"/>
<path d="M360.48 249.662C360.738 248.924 360.926 248.164 361.044 247.391L370.411 250.642C370.411 250.642 376.838 255.542 376.186 266.214C376.186 266.214 368.252 263.292 364.744 266.756L364.673 267.37C363.935 273.46 361.239 279.146 356.989 283.572C355.256 285.391 353.623 287.441 352.758 289.415C352.758 289.415 346.657 287.674 342.953 282.879C339.249 278.084 321.605 273.092 321.605 273.092C321.605 273.092 330.976 273.309 332.283 270.041C333.59 266.773 337.95 259.803 336.426 254.361C334.902 248.919 334.029 247.174 334.029 247.174C334.029 247.174 342.966 240.86 342.31 238.898L347.977 245.434L350.591 246.306C350.385 246.812 350.28 247.354 350.282 247.9C350.132 253.814 358.492 255.233 360.48 249.662Z" fill="#CEDAD5"/>
<path opacity="0.1" d="M350.474 243.935C350.408 243.122 350.298 242.312 350.144 241.511L362.347 240.421C362.347 240.421 361.512 241.152 361.136 243.873C359.703 244.708 358.033 245.868 356.246 245.868C354.162 245.87 352.136 245.192 350.474 243.935V243.935Z" fill="black"/>
<path d="M356.137 245.538C361.432 245.538 365.725 241.248 365.725 235.956C365.725 230.663 361.432 226.373 356.137 226.373C350.841 226.373 346.549 230.663 346.549 235.956C346.549 241.248 350.841 245.538 356.137 245.538Z" fill="#FFD2D9"/>
<path d="M363.22 238.46H361.913V234.758L360.605 230.839C360.605 230.839 354.066 227.788 351.001 228.443L348.62 230.609C348.62 230.609 347.965 225.384 351.89 223.423C355.816 221.461 362.785 222.333 364.531 223.84C366.277 225.347 369.125 227.98 366.928 235.167L366.289 236.936C366.289 236.936 363.654 236.064 363.22 238.46Z" fill="#844F6E"/>
<g opacity="0.05">
<path opacity="0.05" d="M346.281 243.489L345.567 243.251L342.277 239.457C342.341 239.278 342.348 239.082 342.297 238.898L346.281 243.489Z" fill="black"/>
<path opacity="0.05" d="M350.867 250.517C349.936 250.121 349.149 249.447 348.613 248.589C348.078 247.73 347.819 246.728 347.873 245.718C347.873 245.588 347.873 245.467 347.873 245.35L347.939 245.43L350.554 246.302C350.347 246.808 350.242 247.35 350.245 247.896C350.218 248.809 350.433 249.713 350.867 250.517V250.517Z" fill="black"/>
<path opacity="0.05" d="M325.447 272.912C330.91 274.811 338.305 277.804 340.556 280.713L340.723 280.922C334.739 276.819 321.597 273.088 321.597 273.088C322.883 273.102 324.168 273.044 325.447 272.912V272.912Z" fill="black"/>
<path opacity="0.05" d="M350.362 287.249C351.226 285.283 352.867 283.23 354.592 281.406C358.842 276.98 361.538 271.294 362.276 265.204L362.347 264.59C365.834 261.106 373.789 264.048 373.789 264.048C374.207 257.278 371.768 252.834 369.935 250.488L370.415 250.655C370.415 250.655 376.842 255.555 376.19 266.226C376.19 266.226 368.256 263.305 364.748 266.769L364.677 267.383C363.939 273.472 361.243 279.158 356.993 283.584C355.26 285.404 353.627 287.453 352.763 289.427C352.763 289.427 347.451 287.908 343.734 283.818C345.737 285.321 347.977 286.481 350.362 287.249V287.249Z" fill="black"/>
</g>
<path d="M352.759 261.765C352.759 261.765 363.199 276.79 368.665 281.147C374.132 285.504 375.639 279.185 375.639 279.185V265.25L366.034 264.161L365.93 265.484L365.813 266.994L356.876 257.395C356.876 257.395 347.939 249.336 346.198 254.127C344.457 258.919 352.759 261.765 352.759 261.765Z" fill="#FFD2D9"/>
<path opacity="0.1" d="M365.951 265.484C367.258 266.244 368.644 266.86 370.085 267.32C372.144 267.954 374.503 267.287 375.643 266.878V265.25L366.038 264.161L365.951 265.484Z" fill="black"/>
<path d="M375.752 263.835L376.311 266.168C376.311 266.168 372.904 267.754 370.072 266.886C368.163 266.239 366.34 265.362 364.644 264.273C364.226 264.056 366.385 261.661 366.385 261.661L375.752 263.835Z" fill="#CEDAD5"/>
<path opacity="0.1" d="M312.986 290.404C311.533 289.289 309.916 288.406 308.192 287.787C306.548 287.226 304.999 286.418 303.598 285.391" fill="black"/>
<path opacity="0.2" d="M246.629 298.354L246.984 298.329C246.466 299.644 245.731 302.858 248.788 306.368C249.888 307.606 251.227 308.609 252.725 309.319C254.222 310.028 255.847 310.428 257.503 310.495L267.651 310.971L267.325 311.639L256.852 311.159C255.196 311.092 253.571 310.691 252.073 309.982C250.576 309.273 249.237 308.269 248.136 307.031C244.123 302.44 246.629 298.354 246.629 298.354Z" fill="white"/>
<path opacity="0.05" d="M283.633 307.691C283.602 307.821 283.567 307.951 283.528 308.079C283.315 307.958 283.01 307.724 283.633 307.691Z" fill="#00FF00"/>
<path opacity="0.2" d="M266.482 312.728C268.716 313.742 285.512 310.787 287.779 310.378C287.825 310.595 287.913 310.801 288.038 310.984C288.038 310.984 268.862 314.468 266.465 313.379C265.212 312.82 264.924 312.085 265.091 311.418C265.229 311.885 265.621 312.348 266.482 312.728Z" fill="white"/>
<path opacity="0.1" d="M350.044 231.377C347.687 229.953 345.772 227.901 344.515 225.451C344.339 225.181 344.266 224.856 344.31 224.537C344.465 223.944 345.238 223.84 345.797 223.585C346.837 223.11 347.275 221.916 347.956 220.989C348.54 220.227 349.325 219.641 350.222 219.297C351.119 218.953 352.094 218.864 353.038 219.04C354.032 219.241 354.951 219.733 355.962 219.875C358.125 220.192 360.48 218.882 362.422 219.875C363.307 220.33 363.909 221.186 364.435 222.029C365.759 224.145 367.417 226.394 366.214 228.865C365.525 230.284 364.422 231.461 362.873 231.874C361.324 232.287 359.532 231.941 357.954 231.774C356.659 231.632 355.298 231.356 353.995 231.473C352.458 231.632 351.502 232.254 350.044 231.377Z" fill="black"/>
<path d="M350.044 230.939C347.687 229.514 345.772 227.462 344.515 225.013C344.339 224.743 344.266 224.418 344.31 224.099C344.465 223.506 345.238 223.402 345.797 223.147C346.837 222.671 347.275 221.478 347.956 220.551C348.54 219.789 349.325 219.203 350.222 218.859C351.119 218.515 352.094 218.426 353.038 218.602C354.032 218.802 354.951 219.295 355.962 219.437C358.125 219.754 360.48 218.443 362.422 219.437C363.307 219.892 363.909 220.747 364.435 221.59C365.759 223.706 367.417 225.956 366.214 228.427C365.525 229.846 364.422 231.023 362.873 231.436C361.324 231.849 359.532 231.503 357.954 231.336C356.659 231.194 355.298 230.918 353.995 231.035C352.458 231.194 351.502 231.82 350.044 230.939Z" fill="#844F6E"/>
<path d="M170.407 282.825C170.407 287.315 170.658 290.283 170.658 290.283C170.658 290.283 177.077 290.642 176.897 296.589C176.717 302.536 201.845 303.797 201.845 303.797C201.845 303.797 201.845 303.734 201.845 303.617C201.845 303.617 201.845 303.137 201.845 302.269C204.233 302.624 206.789 302.912 208.222 302.774C208.125 303.237 208.013 303.726 207.904 304.16C207.787 304.277 205.474 306.614 205.549 309.101C205.507 310.353 206.075 311.639 207.912 312.707C213.216 315.804 229.732 314.08 229.732 314.08C232.238 312.436 233.073 311.038 233.027 309.878C233.107 308.166 231.399 306.956 229.833 306.176C228.622 305.572 227.235 305.424 225.924 305.758C224.155 306.15 222.339 306.283 220.532 306.155C220.602 305.796 220.696 305.442 220.812 305.095C222.508 305.575 223.677 305.929 223.677 305.929C223.677 305.929 232.48 301.247 228.814 293.68C228.235 292.63 227.365 291.771 226.308 291.205C229.135 286.335 231.82 280.6 231.553 276.744C231.106 270.308 218.319 271.71 213.529 272.466L204.296 263.413C204.296 256.736 204.501 249.069 203.878 247.408C202.776 244.524 203.143 244.904 202.413 243.627L202.383 243.581C201.966 242.905 200.83 241.832 200.538 241.978C200.413 240.651 200.431 239.315 200.592 237.992C202.864 237.25 204.845 235.811 206.253 233.879C207.661 231.948 208.424 229.622 208.434 227.233C208.436 225.445 208.006 223.683 207.182 222.095L207.307 222.041L206.096 216.09C206.053 215.964 206.035 215.831 206.044 215.698C206.054 215.565 206.09 215.436 206.15 215.318C206.275 215.151 206.488 215.1 206.651 214.984C206.836 214.805 206.955 214.57 206.991 214.316C207.026 214.062 206.976 213.804 206.848 213.581C206.735 213.36 206.58 213.163 206.392 213.001C205.373 211.845 203.206 212.258 201.874 212.087C200.07 211.858 198.178 211.524 196.47 212.417C196.102 212.645 195.719 212.846 195.322 213.018C194.778 213.165 194.213 213.219 193.651 213.176C192.635 213.175 191.62 213.266 190.62 213.448C189.317 212.976 187.784 213.394 186.577 214.116C185.196 214.961 184.072 216.165 183.325 217.601C182.577 219.036 182.235 220.647 182.334 222.262C182.44 223.272 182.634 224.271 182.915 225.246L185.149 233.948C185.292 234.675 185.575 235.367 185.984 235.985C186.083 236.116 186.195 236.236 186.318 236.344C186.531 236.6 186.807 236.797 187.119 236.916C187.43 237.034 187.767 237.07 188.097 237.02C188.182 237 188.265 236.97 188.344 236.932C188.268 237.848 188.09 238.752 187.813 239.628C185.257 240.371 181.549 242.967 177.097 250.48C171.385 260.104 170.433 274.294 170.407 282.825Z" fill="url(#paint0_linear)"/>
<path d="M192.62 295.341H217.609V277.453H192.62V295.341Z" fill="#5F5D7E"/>
<path d="M211.408 273.555C211.408 273.555 230.016 269.657 230.547 277.453C231.077 285.249 219.56 300.825 219.56 300.825L209.12 298.701L212.13 286.656C212.13 286.656 200.258 283.997 199.548 283.822C198.838 283.647 211.408 273.555 211.408 273.555Z" fill="#5F5D7E"/>
<path opacity="0.1" d="M211.408 273.555C211.408 273.555 230.016 269.657 230.547 277.453C231.077 285.249 219.56 300.825 219.56 300.825L209.12 298.701L212.13 286.656C212.13 286.656 200.258 283.997 199.548 283.822C198.838 283.647 211.408 273.555 211.408 273.555Z" fill="black"/>
<path d="M221.159 302.958C221.159 302.958 219.388 306.322 219.906 307.741C220.424 309.16 207.324 305.792 207.324 305.792C207.324 305.792 208.389 301.718 208.209 301.201C208.03 300.683 221.159 302.958 221.159 302.958Z" fill="#5F5D7E"/>
<path d="M209.637 279.932L210.94 281.109L211.775 281.869C211.775 281.869 216.031 288.776 221.522 284.527C227.014 280.279 217.259 277.099 215.308 276.936C214.917 276.879 214.546 276.728 214.226 276.496C213.906 276.264 213.647 275.958 213.471 275.604C213.172 275.084 212.955 274.521 212.828 273.935L209.637 279.932Z" fill="#FDC2CC"/>
<path opacity="0.05" d="M209.637 279.932L210.94 281.109L211.775 281.869C211.775 281.869 216.031 288.776 221.522 284.527C227.014 280.279 217.259 277.099 215.308 276.936C214.917 276.879 214.546 276.728 214.226 276.496C213.906 276.264 213.647 275.958 213.471 275.604C213.172 275.084 212.955 274.521 212.828 273.935L209.637 279.932Z" fill="black"/>
<path opacity="0.1" d="M221.159 302.958C221.159 302.958 219.388 306.322 219.906 307.741C220.424 309.16 207.324 305.792 207.324 305.792C207.324 305.792 208.389 301.718 208.209 301.201C208.03 300.683 221.159 302.958 221.159 302.958Z" fill="black"/>
<path opacity="0.1" d="M209.637 279.932L210.94 281.109C210.94 278.839 212.448 276.752 213.479 275.579C213.18 275.059 212.964 274.496 212.836 273.91L209.637 279.932Z" fill="black"/>
<path d="M201.841 262.045L214.068 274.265C214.068 274.265 209.813 277.983 210.702 281.881L201.841 271.961V262.045Z" fill="#C4C8E2"/>
<path opacity="0.1" d="M201.928 262.045V271.965L203.348 273.555L207.562 278.271L210.79 281.886C209.905 277.987 214.156 274.269 214.156 274.269L201.928 262.045Z" fill="black"/>
<path d="M201.841 244.507C201.841 244.507 201.841 248.226 198.65 247.166C195.46 246.106 197.94 289.143 197.94 289.143C197.94 289.143 207.157 282.236 205.382 277.278C203.607 272.32 203.256 268.589 203.423 263.639C203.59 258.689 201.841 244.507 201.841 244.507Z" fill="#D39999"/>
<path d="M201.661 234.591C201.661 234.591 199.001 241.853 201.661 247.345C204.321 252.838 185.884 244.332 185.884 244.332C185.884 244.332 189.96 242.383 188.544 232.997L201.661 234.591Z" fill="#FDC2CC"/>
<path opacity="0.1" d="M203.256 267.712C203.147 269.658 203.147 271.609 203.256 273.555L207.47 278.271C206.853 276.954 206.156 275.676 205.382 274.444C204.726 273.43 204.58 269.386 204.547 264.77L203.002 263.226C203.164 265.717 203.256 267.712 203.256 267.712Z" fill="black"/>
<path d="M200.5 243.547C200.304 242.617 201.841 244.019 202.333 244.833L202.358 244.879C203.068 246.131 202.713 245.764 203.778 248.597C204.843 251.431 203.423 271.969 205.031 274.473C206.117 276.228 207.065 278.064 207.867 279.966L205.031 278.902C205.031 278.902 203.966 275.713 203.26 275.003C202.555 274.294 202.906 267.741 202.906 267.741C202.906 267.741 202.375 256.406 201.841 253.927C201.419 251.932 200.918 245.505 200.5 243.547Z" fill="#C4C8E2"/>
<path opacity="0.1" d="M200.5 243.547C200.304 242.617 201.841 244.019 202.333 244.833L202.358 244.879C203.068 246.131 202.713 245.764 203.778 248.597C204.843 251.431 203.423 271.969 205.031 274.473C206.117 276.228 207.065 278.064 207.867 279.966L205.031 278.902C205.031 278.902 203.966 275.713 203.26 275.003C202.555 274.294 202.906 267.741 202.906 267.741C202.906 267.741 202.375 256.406 201.841 253.927C201.419 251.932 200.918 245.505 200.5 243.547Z" fill="black"/>
<path d="M196.345 287.724C196.345 287.724 224.345 286.66 227.891 294.102C231.436 301.543 222.93 306.151 222.93 306.151C222.93 306.151 211.057 302.432 208.397 302.962C205.737 303.492 196.345 301.543 196.345 301.543V287.724Z" fill="#5F5D7E"/>
<path d="M211.943 283.121C211.943 283.121 218.323 279.578 221.869 281.869C225.414 284.16 225.059 290.37 220.098 290.546C215.137 290.721 212.477 287.712 212.477 287.712L211.943 283.121Z" fill="#FDC2CC"/>
<path d="M191.914 241.143C191.914 241.143 186.243 237.245 177.912 251.577C169.581 265.909 171.71 290.542 171.71 290.542C171.71 290.542 177.912 290.896 177.736 296.739C177.561 302.582 201.841 303.834 201.841 303.834C201.841 303.834 201.486 245.739 199.005 244.153C196.524 242.567 191.914 241.143 191.914 241.143Z" fill="#C4C8E2"/>
<path opacity="0.1" d="M191.889 251.711C192.889 252.431 193.703 253.379 194.264 254.477C194.825 255.574 195.116 256.789 195.113 258.021C195.142 263.326 195.272 274.757 195.81 276.919C196.52 279.753 207.153 283.472 212.648 283.296C212.648 283.296 215.308 288.254 212.118 289.319C208.927 290.383 189.434 289.319 189.434 289.319C189.434 289.319 181.812 280.642 181.637 273.042C181.462 265.442 180.384 256.924 181.637 255.329C182.66 253.981 186.941 248.222 191.889 251.711Z" fill="black"/>
<path d="M192.244 251.001C193.249 251.72 194.068 252.669 194.632 253.768C195.197 254.867 195.49 256.085 195.489 257.32C195.518 262.625 195.648 274.056 196.186 276.218C196.896 279.052 207.528 282.77 213.024 282.595C213.024 282.595 215.684 287.553 212.494 288.618C209.303 289.682 189.809 288.618 189.809 288.618C189.809 288.618 182.188 279.941 182.013 272.341C181.837 264.741 180.76 256.222 182.013 254.628C183.015 253.288 187.295 247.512 192.244 251.001Z" fill="#C4C8E2"/>
<path d="M228.876 306.363C231.42 307.616 234.368 310.195 228.78 314.114C228.78 314.114 212.832 315.883 207.691 312.695C202.551 309.506 207.691 304.368 207.691 304.368C207.691 304.368 219.455 307.494 225.101 305.967C226.366 305.634 227.709 305.775 228.876 306.363Z" fill="#4C4C56"/>
<path opacity="0.1" d="M228.876 306.722C231.42 307.933 234.368 310.387 228.78 314.139C228.78 314.139 212.832 315.833 207.691 312.782C202.551 309.731 207.691 304.819 207.691 304.819C207.691 304.819 219.455 307.807 225.101 306.351C226.364 306.03 227.7 306.162 228.876 306.722Z" fill="black"/>
<path opacity="0.1" d="M192.712 264.257C192.712 264.257 193.597 275.417 199.448 277.896Z" fill="black"/>
<path opacity="0.1" d="M201.486 235.831C200.968 237.366 200.617 238.953 200.437 240.563C199.318 240.939 197.681 239.996 196.433 239.996C193.184 239.996 192.257 236.365 190.231 234.153C190.231 233.168 188.561 235.467 188.369 234.24L201.486 235.831Z" fill="black"/>
<path d="M185.884 228.744C185.883 229.67 185.996 230.592 186.222 231.49L186.26 231.632C186.991 234.385 188.743 236.756 191.16 238.265C193.577 239.774 196.478 240.307 199.274 239.757C202.07 239.206 204.552 237.613 206.215 235.3C207.879 232.988 208.6 230.13 208.232 227.305C207.864 224.481 206.434 221.903 204.234 220.093C202.033 218.284 199.226 217.379 196.382 217.563C193.538 217.746 190.87 219.004 188.921 221.082C186.971 223.159 185.885 225.9 185.884 228.748V228.744Z" fill="#FDC2CC"/>
<path opacity="0.1" d="M177.916 251.769C179.074 249.732 180.399 247.794 181.879 245.976C180.689 247.54 179.602 249.179 178.626 250.884C170.295 265.233 172.425 289.849 172.425 289.849C172.425 289.849 178.626 290.203 178.451 296.046C178.292 301.293 197.832 302.828 201.836 303.087C201.836 303.688 201.836 304.014 201.836 304.014C201.836 304.014 177.557 302.762 177.732 296.919C177.908 291.076 171.706 290.721 171.706 290.721C171.706 290.721 169.597 266.118 177.916 251.769Z" fill="black"/>
<path opacity="0.1" d="M187.3 216.002C188.469 215.297 189.947 214.883 191.208 215.347C192.173 215.169 193.151 215.079 194.132 215.08C194.668 215.12 195.208 215.068 195.727 214.925C196.111 214.756 196.482 214.56 196.838 214.337C198.487 213.46 200.316 213.79 202.058 214.015C203.473 214.199 205.866 213.686 206.685 215.305C206.809 215.524 206.857 215.777 206.823 216.025C206.789 216.274 206.675 216.505 206.497 216.682C206.338 216.799 206.134 216.845 206.012 217.012C205.954 217.129 205.919 217.256 205.909 217.386C205.9 217.517 205.917 217.648 205.958 217.772L207.127 223.615C206.589 223.877 206.003 224.026 205.405 224.053C204.806 224.08 204.209 223.985 203.649 223.773C203.336 223.65 203.029 223.511 202.73 223.356C201.857 223.923 200.955 223.493 199.899 223.719C199.274 223.898 198.718 224.262 198.304 224.762C197.075 226.071 196.253 227.708 195.936 229.474C195.819 230.138 195.664 230.956 195.021 231.144C194.777 231.19 194.53 231.216 194.282 231.219C193.121 231.369 192.645 232.742 191.897 233.648C190.987 234.75 189.354 235.467 189.254 236.895C189.229 237.262 189.308 237.667 189.104 237.976C188.966 238.16 188.763 238.285 188.536 238.326C188.178 238.377 187.814 238.325 187.484 238.177C187.155 238.03 186.873 237.792 186.673 237.492C186.284 236.882 186.016 236.203 185.884 235.492L183.725 226.937C183.453 225.981 183.265 225.003 183.161 224.015C183.064 222.431 183.398 220.85 184.126 219.439C184.855 218.028 185.951 216.841 187.3 216.002V216.002Z" fill="black"/>
<path d="M187.137 215.843C188.306 215.138 189.784 214.725 191.046 215.188C192.01 215.01 192.988 214.92 193.969 214.921C194.505 214.961 195.045 214.909 195.564 214.767C195.948 214.598 196.32 214.401 196.675 214.178C198.324 213.302 200.154 213.631 201.895 213.857C203.311 214.04 205.703 213.527 206.522 215.146C206.646 215.365 206.694 215.618 206.66 215.867C206.626 216.115 206.512 216.346 206.334 216.524C206.175 216.641 205.971 216.686 205.85 216.853C205.791 216.97 205.756 217.097 205.746 217.228C205.737 217.358 205.754 217.489 205.795 217.613L206.965 223.456C206.426 223.718 205.84 223.867 205.242 223.894C204.644 223.922 204.046 223.826 203.486 223.615C203.173 223.491 202.866 223.352 202.567 223.197C201.694 223.765 200.792 223.335 199.736 223.56C199.111 223.74 198.555 224.103 198.141 224.604C196.912 225.913 196.09 227.549 195.773 229.316C195.656 229.979 195.501 230.797 194.858 230.985C194.615 231.032 194.367 231.057 194.119 231.06C192.958 231.21 192.482 232.583 191.735 233.489C190.824 234.591 189.191 235.309 189.091 236.736C189.066 237.103 189.145 237.508 188.941 237.817C188.803 238.002 188.6 238.127 188.373 238.168C188.015 238.218 187.651 238.166 187.321 238.019C186.992 237.871 186.711 237.633 186.51 237.333C186.121 236.723 185.853 236.045 185.721 235.334L183.562 226.778C183.29 225.822 183.102 224.845 182.998 223.857C182.901 222.272 183.235 220.691 183.963 219.28C184.692 217.87 185.788 216.682 187.137 215.843Z" fill="#865A61"/>
</g>
<defs>
<linearGradient id="paint0_linear" x1="233.023" y1="263.196" x2="170.407" y2="263.196" gradientUnits="userSpaceOnUse">
<stop stop-color="#808080" stop-opacity="0.25"/>
<stop offset="0.54" stop-color="#808080" stop-opacity="0.12"/>
<stop offset="1" stop-color="#808080" stop-opacity="0.1"/>
</linearGradient>
<clipPath id="clip0">
<rect width="477" height="326" fill="white"/>
</clipPath>
</defs>
</svg>
